<?xml version="1.0" encoding="utf-8"?>
<!-- Generator: Adobe Illustrator 22.0.0, SVG Export Plug-In . SVG Version: 6.00 Build 0)  -->
<svg version="1.1" id="图层_1" xmlns="http://www.w3.org/2000/svg" xmlns:xlink="http://www.w3.org/1999/xlink" x="0px" y="0px"
	 width="44px" height="48px" viewBox="0 0 44 48" style="enable-background:new 0 0 44 48;" xml:space="preserve">
<style type="text/css">
	.st0{fill-rule:evenodd;clip-rule:evenodd;fill:#EAC3C5;}
	.st1{fill:#EAC3C5;}
	.st2{fill:#F8F9FB;}
	.st3{fill:#FFFFFF;}
	.st4{fill:#EAC3C5;stroke:#EAC3C5;stroke-linecap:round;stroke-linejoin:round;stroke-miterlimit:10;}
</style>
<g>
	<path class="st1" d="M31,26.5v14.9c0,0.9-0.7,1.7-1.6,1.7H5.6c-0.9,0-1.6-0.8-1.6-1.7V17.3c0-0.9,0.7-1.7,1.6-1.7h19.1l3.5-3.4H5.6
		c-2.7,0-4.9,2.3-4.9,5.1v24.1c0,2.8,2.2,5.1,4.9,5.1h23.7c2.7,0,4.9-2.3,4.9-5.1V23.2L31,26.5z"/>
	<line class="st4" x1="7.2" y1="36.7" x2="13" y2="36.7"/>
	<polygon class="st1" points="37.8,18 33.1,13.2 33,13.2 33,13.2 30.7,10.8 31.8,9.6 38.9,16.9 	"/>
	<polygon class="st1" points="33.5,14.3 35,15.8 19.2,31.6 17.1,29.5 32.9,13.7 	"/>
	<polygon class="st1" points="21.8,34.2 19.6,32 35.3,16.2 37.5,18.4 	"/>
	<polygon class="st1" points="30.3,11.1 32.5,13.3 16.8,29.1 14.6,26.9 	"/>
	<polygon class="st1" points="12.4,34.8 14,36.4 12.5,36.3 	"/>
	<polygon class="st1" points="14.5,36.2 12.6,34.3 14.1,27.8 14.5,28.2 20.9,34.7 	"/>
	<path class="st1" d="M42.4,13.4l-3.1,3.1l-7.2-7.3l3.1-3.1c0.6-0.6,1.4-0.9,2.2-0.9c0.8,0,1.6,0.3,2.2,0.9l2.7,2.8
		C43.6,10.2,43.6,12.2,42.4,13.4z"/>
</g>
</svg>
