<?xml version="1.0" encoding="utf-8"?>
<!-- Generator: Adobe Illustrator 22.0.0, SVG Export Plug-In . SVG Version: 6.00 Build 0)  -->
<svg version="1.1" id="图层_1" xmlns="http://www.w3.org/2000/svg" xmlns:xlink="http://www.w3.org/1999/xlink" x="0px" y="0px"
	 width="44px" height="48px" viewBox="0 0 44 48" style="enable-background:new 0 0 44 48;" xml:space="preserve">
<style type="text/css">
	.st0{fill-rule:evenodd;clip-rule:evenodd;fill:#EAC3C5;}
	.st1{fill:#EAC3C5;}
	.st2{fill:#F8F9FB;}
	.st3{fill:#FFFFFF;}
</style>
<g>
	<path class="st1" d="M12.5,19.7h-8c-2.2,0-4-1.8-4-4V7.4c0-2.2,1.8-4,4-4h8c2.2,0,4,1.8,4,4v8.4C16.5,17.9,14.7,19.7,12.5,19.7z"/>
	<path class="st1" d="M39.1,19.7h-8c-2.2,0-4-1.8-4-4V7.4c0-2.2,1.8-4,4-4h8c2.2,0,4,1.8,4,4v8.4C43.1,17.9,41.3,19.7,39.1,19.7z"/>
	<path class="st1" d="M12.5,47h-8c-2.2,0-4-1.8-4-4v-8.4c0-2.2,1.8-4,4-4h8c2.2,0,4,1.8,4,4V43C16.5,45.2,14.7,47,12.5,47z"/>
	<path class="st1" d="M26.1,14.3h-3.3c-0.5,0-1-0.5-1-1V9.8c0-0.6,0.5-1,1-1l3.3,0c0.6,0,1,0.5,1,1v3.5
		C27.1,13.8,26.7,14.3,26.1,14.3z"/>
	<path class="st1" d="M10.2,25.2l-3.3,0c-0.6,0-1-0.4-1-1v-3.5c0-0.6,0.5-1,1-1h3.3c0.5,0,1,0.5,1,1v3.5
		C11.2,24.7,10.7,25.2,10.2,25.2z"/>
	<path class="st1" d="M20.8,25.2l-3.3,0c-0.6,0-1-0.4-1-1v-3.5c0-0.6,0.4-1,1-1h3.3c0.6,0,1,0.5,1,1v3.5
		C21.8,24.7,21.4,25.2,20.8,25.2z"/>
	<path class="st1" d="M36.8,25.2l-3.3,0c-0.5,0-1-0.4-1-1v-3.5c0-0.6,0.5-1,1-1h3.3c0.5,0,1,0.5,1,1v3.5
		C37.8,24.7,37.3,25.2,36.8,25.2z"/>
	<path class="st1" d="M42.1,30.6h-3.3c-0.5,0-1-0.5-1-1v-3.5c0-0.6,0.5-1,1-1h3.3c0.5,0,1,0.4,1,1v3.5
		C43.1,30.2,42.7,30.6,42.1,30.6z"/>
	<path class="st1" d="M36.8,36.1h-3.3c-0.5,0-1-0.5-1-1v-3.5c0-0.6,0.5-1,1-1h3.3c0.5,0,1,0.4,1,1v3.5
		C37.8,35.6,37.3,36.1,36.8,36.1z"/>
	<path class="st1" d="M20.8,41.5h-3.3c-0.6,0-1-0.4-1-1v-3.5c0-0.5,0.4-1,1-1h3.3c0.6,0,1,0.5,1,1v3.5
		C21.8,41.1,21.4,41.5,20.8,41.5z"/>
	<path class="st1" d="M26.1,47h-3.3c-0.5,0-1-0.5-1-1v-3.5c0-0.5,0.5-1,1-1h3.3c0.6,0,1,0.5,1,1V46C27.1,46.5,26.7,47,26.1,47z"/>
	<path class="st1" d="M31.9,25.6h-9.6c-0.5,0-1,0.4-1,0.8v3.3l0,0l0,0v5c0,0.5,0.4,0.8,1,0.8h3.8c0.5,0,1-0.4,1-0.8v-4.2h4.8
		c0.5,0,1-0.4,1-0.8v-3.3C32.9,26,32.5,25.6,31.9,25.6z"/>
	<path class="st1" d="M32.5,47h9.6c0.5,0,1-0.4,1-0.8v-3.3l0,0l0,0v-5c0-0.5-0.4-0.8-1-0.8h-3.8c-0.5,0-1,0.4-1,0.8V42h-4.8
		c-0.5,0-1,0.4-1,0.8v3.3C31.6,46.6,32,47,32.5,47z"/>
	<path class="st1" d="M15.5,30.6h-3.3c-0.6,0-1-0.5-1-1v-3.5c0-0.6,0.4-1,1-1h3.3c0.6,0,1,0.4,1,1v3.5C16.5,30.2,16,30.6,15.5,30.6z
		"/>
</g>
</svg>
