<?xml version="1.0" encoding="utf-8"?>
<!-- Generator: Adobe Illustrator 22.0.0, SVG Export Plug-In . SVG Version: 6.00 Build 0)  -->
<svg version="1.1" id="图层_1" xmlns="http://www.w3.org/2000/svg" xmlns:xlink="http://www.w3.org/1999/xlink" x="0px" y="0px"
	 width="44px" height="48px" viewBox="0 0 44 48" style="enable-background:new 0 0 44 48;" xml:space="preserve">
<style type="text/css">
	.st0{fill-rule:evenodd;clip-rule:evenodd;fill:#ED4149;}
	.st1{fill:#EAC3C5;}
	.st2{fill:#F8F9FB;}
	.st3{fill:#FFFFFF;}
	.st4{fill:#ED4149;}
	.st5{opacity:0.94;}
</style>
<g>
	<path class="st4" d="M12.5,18.7h-8c-2.2,0-4-1.8-4-4V6.4c0-2.2,1.8-4,4-4h8c2.2,0,4,1.8,4,4v8.4C16.5,16.9,14.7,18.7,12.5,18.7z"/>
	<path class="st4" d="M39.1,18.7h-8c-2.2,0-4-1.8-4-4V6.4c0-2.2,1.8-4,4-4h8c2.2,0,4,1.8,4,4v8.4C43.1,16.9,41.3,18.7,39.1,18.7z"/>
	<path class="st4" d="M12.5,46h-8c-2.2,0-4-1.8-4-4v-8.4c0-2.2,1.8-4,4-4h8c2.2,0,4,1.8,4,4V42C16.5,44.2,14.7,46,12.5,46z"/>
	<path class="st4" d="M26.1,13.3h-3.3c-0.5,0-1-0.5-1-1V8.8c0-0.6,0.5-1,1-1h3.3c0.6,0,1,0.5,1,1v3.5C27.1,12.8,26.7,13.3,26.1,13.3
		z"/>
	<path class="st4" d="M10.2,24.2l-3.3,0c-0.6,0-1-0.4-1-1v-3.5c0-0.6,0.5-1,1-1h3.3c0.5,0,1,0.5,1,1v3.5
		C11.2,23.7,10.7,24.2,10.2,24.2z"/>
	<path class="st4" d="M20.8,24.2l-3.3,0c-0.6,0-1-0.4-1-1v-3.5c0-0.6,0.4-1,1-1h3.3c0.6,0,1,0.5,1,1v3.5
		C21.8,23.7,21.4,24.2,20.8,24.2z"/>
	<path class="st4" d="M36.8,24.2l-3.3,0c-0.5,0-1-0.4-1-1v-3.5c0-0.6,0.5-1,1-1h3.3c0.5,0,1,0.5,1,1v3.5
		C37.8,23.7,37.3,24.2,36.8,24.2z"/>
	<path class="st4" d="M42.1,29.6h-3.3c-0.5,0-1-0.5-1-1v-3.5c0-0.6,0.5-1,1-1h3.3c0.5,0,1,0.4,1,1v3.5
		C43.1,29.2,42.7,29.6,42.1,29.6z"/>
	<path class="st4" d="M36.8,35.1h-3.3c-0.5,0-1-0.5-1-1v-3.5c0-0.6,0.5-1,1-1h3.3c0.5,0,1,0.4,1,1v3.5
		C37.8,34.6,37.3,35.1,36.8,35.1z"/>
	<path class="st4" d="M20.8,40.5h-3.3c-0.6,0-1-0.4-1-1v-3.5c0-0.5,0.4-1,1-1h3.3c0.6,0,1,0.5,1,1v3.5
		C21.8,40.1,21.4,40.5,20.8,40.5z"/>
	<path class="st4" d="M26.1,46h-3.3c-0.5,0-1-0.5-1-1v-3.5c0-0.5,0.5-1,1-1h3.3c0.6,0,1,0.5,1,1V45C27.1,45.5,26.7,46,26.1,46z"/>
	<path class="st4" d="M31.9,24.6h-9.6c-0.5,0-1,0.4-1,0.8v3.3l0,0l0,0v5c0,0.5,0.4,0.8,1,0.8h3.8c0.5,0,1-0.4,1-0.8v-4.2h4.8
		c0.5,0,1-0.4,1-0.8v-3.3C32.9,25,32.5,24.6,31.9,24.6z"/>
	<path class="st4" d="M32.5,46h9.6c0.5,0,1-0.4,1-0.8v-3.3l0,0l0,0v-5c0-0.5-0.4-0.8-1-0.8h-3.8c-0.5,0-1,0.4-1,0.8V41h-4.8
		c-0.5,0-1,0.4-1,0.8v3.3C31.6,45.6,32,46,32.5,46z"/>
	<path class="st4" d="M15.5,29.6h-3.3c-0.6,0-1-0.5-1-1v-3.5c0-0.6,0.4-1,1-1h3.3c0.6,0,1,0.4,1,1v3.5C16.5,29.2,16,29.6,15.5,29.6z
		"/>
</g>
</svg>
