<?xml version="1.0" encoding="utf-8"?>
<!-- Generator: Adobe Illustrator 22.0.0, SVG Export Plug-In . SVG Version: 6.00 Build 0)  -->
<svg version="1.1" id="图层_1" xmlns="http://www.w3.org/2000/svg" xmlns:xlink="http://www.w3.org/1999/xlink" x="0px" y="0px"
	 width="24px" height="24px" viewBox="0 0 24 24" style="enable-background:new 0 0 24 24;" xml:space="preserve">
<style type="text/css">
	.st0{opacity:0.2;fill-rule:evenodd;clip-rule:evenodd;fill:#FB4C6D;}
	.st1{fill-rule:evenodd;clip-rule:evenodd;fill:none;stroke:#ED4149;stroke-miterlimit:10;}
	.st2{opacity:0.2;}
	.st3{fill:#FB4C6D;}
	.st4{fill:none;stroke:#ED4149;stroke-miterlimit:10;}
	.st5{fill-rule:evenodd;clip-rule:evenodd;fill:#FB4C6D;}
</style>
<g class="st2">
	<path class="st5" d="M3.2,6.4c0,0.1-3.4,2.4,0.4,9.7c3.8,7.2,6.9,5.6,6.9,5.6l-1.9-4.2c0,0-0.5,0.4-1.2-0.5C6.7,16,5.2,13.1,4.9,12
		c-0.2-1.1-0.2-1.5,0.2-1.5C3.2,6.5,3.1,6.3,3.2,6.4z"/>
	<path class="st5" d="M3.7,6.2l2,4.1l1.2-0.6c0,0,0.5-0.2,0.2-0.9C6.8,8.3,5.6,5.8,5.6,5.8S5.5,5.4,5,5.5C4.6,5.7,3.7,6.1,3.7,6.1
		L3.7,6.2z"/>
	<path class="st5" d="M9,17.2l2,4.1l1.2-0.6c0,0,0.5-0.2,0.2-0.9c-0.3-0.6-1.5-3.1-1.5-3.1s-0.1-0.3-0.6-0.2C9.9,16.7,9,17.1,9,17.1
		L9,17.2z"/>
</g>
<path class="st1" d="M3.4,4c0.1,0.1-4.1,2.9,0.5,11.7c4.5,8.7,8.3,6.7,8.3,6.7l-2.2-5.1c0,0-0.6,0.5-1.4-0.6
	c-0.8-1.1-2.6-4.6-2.9-5.9C5.3,9.5,5.3,9.1,5.8,9.1C3.5,4.2,3.4,3.9,3.4,4z"/>
<path class="st1" d="M4.1,3.8l2.4,5l1.4-0.7c0,0,0.6-0.3,0.2-1C7.8,6.3,6.4,3.2,6.4,3.2S6.3,2.8,5.7,3C5.2,3.1,4.1,3.6,4.1,3.6
	L4.1,3.8z"/>
<path class="st1" d="M10.5,17.1l2.4,5l1.4-0.7c0,0,0.6-0.3,0.2-1c-0.4-0.8-1.8-3.8-1.8-3.8s-0.1-0.4-0.7-0.3
	c-0.5,0.2-1.6,0.6-1.6,0.6L10.5,17.1z"/>
<path class="st1" d="M13.2,5.7c0.6,0.2,1.7,0.7,2.6,1.4c0.7,0.6,1.4,1.4,1.7,2.3c0.4,1.3,0.6,2.4,0.5,3.4c-0.1,0.8-0.3,1.6-0.6,2.4
	l-0.7,0.4c0.5-1,0.8-1.9,0.8-2.9c0.1-0.9,0-2-0.4-3.2c-0.3-0.9-0.9-1.6-1.5-2.1c-1.2-1-2.8-1.5-3-1.5L13.2,5.7L13.2,5.7z M19.2,17.1
	l0.7-0.4c0.7-1.6,2.2-5.8-0.1-9.6c-2-3.4-4.3-4.4-6.2-4.9l-0.9,0.3c0.1,0,0.3,0,0.3,0C14,2.7,17,3.2,19.4,7.4
	C22.1,11.8,19.2,17.1,19.2,17.1z"/>
</svg>
