<?xml version="1.0" encoding="utf-8"?>
<!-- Generator: Adobe Illustrator 22.0.0, SVG Export Plug-In . SVG Version: 6.00 Build 0)  -->
<svg version="1.1" id="图层_1" xmlns="http://www.w3.org/2000/svg" xmlns:xlink="http://www.w3.org/1999/xlink" x="0px" y="0px"
	 width="24px" height="24px" viewBox="0 0 24 24" style="enable-background:new 0 0 24 24;" xml:space="preserve">
<style type="text/css">
	.st0{opacity:0.2;fill-rule:evenodd;clip-rule:evenodd;fill:#FB4C6D;}
	.st1{fill-rule:evenodd;clip-rule:evenodd;fill:none;stroke:#ED4149;stroke-miterlimit:10;}
</style>
<g>
	<path class="st0" d="M14.1,22c1.8,0,1.3,0.9,5.2,0.7c0.9,0,2.7-0.9,1.8-2c-0.3-0.5-0.9-0.7-1.5-0.9c0.6-0.5,1.1-1.3,1.4-2.4
		c0.4,0.7,0.6,1,0.9,1.2c0.6,0.2,1,0,1.1-1c0.2-1.9-0.5-3.7-1.8-5.3c0.3-1.1,0.1-1.9-0.5-2.4c0-3.7-2.1-6.2-6.7-6.3
		c-3.9-0.1-6.1,2.6-6.5,6.2c-0.4,0.1-0.4,0.6-0.5,1c-0.3,0.4-0.3,1-0.3,1.6c-1.7,1.3-2.8,3-2.5,5.4c0.1,0.6,0.4,0.9,0.9,0.5
		c0.4-0.3,0.7-0.7,0.9-1.2c0.5,1.3,1.1,2.2,1.9,2.8c-1,0.1-1.4,0.5-1.6,1.2c0.1,0,0.2,0.1,0.4,0c-0.1,0.1-0.1,0.1-0.1,0.2
		c-0.1,0.1-0.1,0.3-0.1,0.4c0.9,1.2,4.5,1.5,6.4,0.7C13.5,22.2,13.8,21.9,14.1,22z"/>
	<path class="st1" d="M12.6,21.9c1.9,0,1.4,1,5.5,0.7c1,0,2.9-1,2-2.1c-0.3-0.5-0.9-0.8-1.6-0.9c0.7-0.6,1.2-1.4,1.5-2.6
		c0.4,0.7,0.7,1.1,0.9,1.3c0.6,0.2,1.1,0,1.2-1.1c0.2-2-0.6-3.9-1.9-5.7c0.3-1.1,0.2-2-0.6-2.5c0-3.9-2.2-6.6-7.2-6.7
		C8.3,2.2,6,5.1,5.6,8.9C5.2,9.1,5.1,9.5,5.1,10c-0.3,0.5-0.3,1.1-0.3,1.7c-1.9,1.4-3,3.2-2.6,5.8c0.1,0.7,0.4,0.9,0.9,0.6
		c0.4-0.4,0.8-0.8,1-1.3c0.5,1.4,1.2,2.4,2.1,3c-1.1,0.1-1.5,0.6-1.8,1.3c0.1,0,0.2,0.1,0.4,0c-0.1,0.1-0.1,0.1-0.1,0.2
		c-0.1,0.1-0.1,0.3-0.2,0.5c0.9,1.3,4.8,1.6,6.8,0.7C12,22.1,12.3,21.8,12.6,21.9z"/>
</g>
</svg>
