<?xml version="1.0" encoding="utf-8"?>
<!-- Generator: Adobe Illustrator 22.0.0, SVG Export Plug-In . SVG Version: 6.00 Build 0)  -->
<svg version="1.1" id="图层_1" xmlns="http://www.w3.org/2000/svg" xmlns:xlink="http://www.w3.org/1999/xlink" x="0px" y="0px"
	 width="24px" height="24px" viewBox="0 0 24 24" style="enable-background:new 0 0 24 24;" xml:space="preserve">
<style type="text/css">
	.st0{opacity:0.2;fill-rule:evenodd;clip-rule:evenodd;fill:#FB4C6D;}
	.st1{fill-rule:evenodd;clip-rule:evenodd;fill:none;stroke:#ED4149;stroke-miterlimit:10;}
	.st2{opacity:0.2;}
	.st3{fill:#FB4C6D;}
	.st4{fill:none;stroke:#ED4149;stroke-miterlimit:10;}
</style>
<g>
	<g class="st2">
		<circle class="st3" cx="15.4" cy="12.1" r="3"/>
		<circle class="st3" cx="7.4" cy="8.2" r="3"/>
		<path class="st3" d="M10.4,22.9c0,0-3.5-4.1,2.9-7.3l2,3.4l2.2-3.4c0,0,5.9,2.6,2.8,7.3H10.4z"/>
		<path class="st3" d="M12.6,14.8c-0.7-0.2-1-1.4-1.2-1.9c0-0.1-0.1-0.1-0.1-0.2c-0.9-0.7-1.8-1.1-1.8-1.1L7.4,15l-2-3.4
			C-1,14.9,2.5,19,2.5,19h6.2C9.6,16.2,11.9,15.2,12.6,14.8C12.7,14.9,12.7,14.8,12.6,14.8z"/>
	</g>
	<g>
		<circle class="st4" cx="15.9" cy="10.2" r="3.1"/>
		<circle class="st4" cx="7.6" cy="6.1" r="3.1"/>
		<path class="st4" d="M10.8,21.4c0,0-3.6-4.2,3-7.6l2.1,3.5l2.3-3.5c0,0,6.2,2.7,2.9,7.6H10.8z"/>
		<path class="st4" d="M13,12.9c-0.7-0.2-1.1-1.5-1.2-2c0-0.1-0.1-0.1-0.1-0.2C10.8,10,9.9,9.7,9.9,9.7l-2.3,3.5L5.6,9.7
			c-6.6,3.4-3,7.6-3,7.6H9C9.9,14.4,12.3,13.3,13,12.9C13.1,13,13.1,12.9,13,12.9z"/>
	</g>
</g>
</svg>
