<?xml version="1.0" encoding="utf-8"?>
<!-- Generator: Adobe Illustrator 22.0.0, SVG Export Plug-In . SVG Version: 6.00 Build 0)  -->
<svg version="1.1" id="图层_1" xmlns="http://www.w3.org/2000/svg" xmlns:xlink="http://www.w3.org/1999/xlink" x="0px" y="0px"
	 width="44px" height="48px" viewBox="0 0 44 48" style="enable-background:new 0 0 44 48;" xml:space="preserve">
<style type="text/css">
	.st0{fill-rule:evenodd;clip-rule:evenodd;fill:#ED4149;}
	.st1{fill:#EAC3C5;}
	.st2{fill:#F8F9FB;}
	.st3{fill:#FFFFFF;}
	.st4{fill:#ED4149;}
	.st5{opacity:0.94;}
</style>
<g>
	<path class="st0" d="M36,40.2c0.5,0.2,2.2,1,1.8,2.4c0,0,2.1,2.4-1.3,4c-3.5,1.6-10.1,2.1-12.6-0.3c0,0,8.7-1.3,12-6.1
		C35.9,40.2,35.9,40.2,36,40.2z"/>
	<path class="st0" d="M7.5,40.2c-0.5,0.2-2.2,1-1.8,2.4c0,0-2.1,2.4,1.3,4s10.1,2.1,12.6-0.3c0,0-8.7-1.3-12-6.1
		C7.7,40.2,7.6,40.2,7.5,40.2z"/>
	<g>
		<path class="st0" d="M3,26.3c0.7-1.4,1.4-2.5,1.9-3.2c-0.8-2.6-0.2-4.2,0.9-6.5c0-2.5,0.5-5.4,1.6-7.9c2.5-4.9,6.1-7.1,9.7-7.9
			v6.8h-0.3l-0.2,0.1l-0.3,0.1L16.1,8l-0.4,0.4l-0.3,0.6L15,9.6l-0.2,0.8l-0.2,0.8l-0.1,0.9l0,0l0,0l0.1,0.9l0.2,0.9l0.2,0.8
			l0.3,0.6l0.3,0.6l0.4,0.4l0.2,0.2l0.3,0.1l0.2,0.1h0.3V18l-0.3,0L16,18.3l-0.9,0.3l-0.8,0.3l-0.7,0.3l-0.6,0.3l-0.5,0.3l-0.4,0.3
			l-0.4,0.3l-0.3,0.3l-0.2,0.2L11,20.8v0.1V21l0,0V21l0.1,0.1l0.2,0.3l0.2,0.1l0.2,0.1l0.4,0.3l0.3,0.1l0.3,0.1l0.5,0.2l0.3,0.1h0.2
			l0.3,0.1h0.3L13.7,22l-0.2-0.3l-0.2-0.2l-0.1-0.2l-0.1-0.2h0.1l0.1,0.1l0.4,0.3l0.3,0.2l0.4,0.3l0.4,0.3l0.5,0.3L16,23l0.3,0.2
			l0.3,0.1l0.5,0.2V26L17,26L16.7,26L16,25.8l-0.6-0.2l-0.6-0.1l-0.6-0.2L13.6,25l-0.6-0.2l-0.5-0.2l-0.5-0.3L11.6,24l-0.5-0.3
			l-0.4-0.2L9.9,23l-0.7-0.5l-0.3-0.2l-0.3-0.3l-0.5-0.5L7.7,21l-0.3-0.3l-0.2-0.3l-0.1-0.1l0.1,0.5l0.2,0.7l0.2,0.4l0.2,0.5
			l0.2,0.5l0.3,0.5l0.3,0.5L9,24.3l0.2,0.3l0.2,0.2l0.5,0.5l0.4,0.2l0.3,0.3l0.3,0.3l0.4,0.2L12,27l0.5,0.3l0.4,0.2l-0.2-0.1
			l-0.2-0.1l-0.4-0.1l-0.3-0.2l-0.5-0.2l-0.5-0.2l-0.2-0.2l-0.3-0.2l-0.6-0.5l-0.3-0.3l-0.3-0.2L9,24.9l-0.3-0.3l-0.6-0.8l-0.3-0.5
			l-0.3-0.5l-0.2-0.5l-0.3-0.5l-0.3-0.5l-0.3-0.6L6.3,20l-0.2-0.7v0.1l-0.1,0.1L6,19.7L5.9,20l-0.1,0.4l-0.1,0.5v0.5v0.3L5.9,22
			l0.1,0.3L6,22.6L6,22.8l0.1,0.4l0.1,0.3l0.1,0.4l0.2,0.3l0.2,0.3l0.2,0.4l0.2,0.3l0.3,0.4l0.3,0.2L8,26.1l0.4,0.3l0.4,0.2l0.4,0.3
			l1.2,0.8l0.5,0.2l0.5,0.4l0.6,0.3l0.7,0.4l0.7,0.4l0.8,0.3l0.8,0.4l0.8,0.3l0.4,0.1l0.5,0.1l0.5,0.1v0.9l-0.1,0l-0.7-0.1l-0.7-0.3
			L15,31l-0.7-0.3l-0.6-0.3l-0.5-0.3L12.7,30l-1-0.5L10.9,29l-0.7-0.5l-0.6-0.4l-0.4-0.3l-0.4-0.3l-0.3,0.5l-0.3,0.6l-0.3,0.5
			l-0.2,0.5l-0.2,0.5l-0.2,0.5l-0.2,0.4l-0.1,0.4C5.4,30,4.1,28.2,3,26.3L3,26.3z"/>
		<path class="st0" d="M17.1,10.8c-1,0.4-0.7,2-0.7,2.5c0,0.5,0.5,0.5,0.7-0.1c0-0.1,0-0.1,0.1-0.2V10.8z"/>
		<polygon class="st0" points="17.1,31.6 17.1,30.7 17.5,30.8 18,30.9 18.4,31 18.9,31.1 19.4,31.1 20.2,31.3 21,31.3 21.8,31.3 
			22.6,31.2 23.5,31.1 24.3,31 24.4,30.9 24.4,31.7 24,31.8 23.2,31.9 22.8,32 22.4,32 21.6,32.1 20.8,32.1 20,32.1 19.2,31.9 
			18.5,31.9 18.1,31.8 17.7,31.7 17.1,31.6 		"/>
		<path class="st0" d="M24.4,0.8v6.7l-0.3,0.1l-0.2,0.1l-0.3,0.1l-0.2,0.1L23,8.3l-0.4,0.5l-0.3,0.7l-0.2,0.8L22,11.2l-0.1,0.9l0,0
			l0,0L22,13l0.2,0.8l0.2,0.8l0.3,0.7l0.4,0.5l0.4,0.4l0.2,0.1l0.3,0.1l0.2,0.1h0.3l0,0v1.5L24.1,18l-0.9-0.1l-0.5-0.1h-0.5
			l-1.1-0.1h-0.6h-0.5l-0.5,0.1h-0.5l-0.5,0.1l-0.5,0.1L17.3,18l-0.2,0v-1.4h0l0,0h0.3l0.2-0.1l0.3-0.1l0.2-0.2l0.4-0.4l0.4-0.6
			l0.3-0.6l0.2-0.8l0.2-0.9l0.1-0.9l0,0l-0.1-0.9l-0.2-0.8l-0.2-0.8l-0.3-0.7l-0.4-0.6L18.1,8l-0.2-0.2l-0.3-0.1l-0.2-0.1h-0.3l0,0
			h0V0.8C19.9,0.2,22.5,0.4,24.4,0.8L24.4,0.8z"/>
		<path class="st0" d="M17.1,10.8v2.1c0.1-0.5,0.1-0.9,0.5-0.9c0.5,0,0.5,1.3,0.5,1.3s0,0.5,0.3,0.5c0.4,0,0.3-0.3,0.3-0.3
			s0.2-2.8-1.3-2.8C17.4,10.7,17.2,10.7,17.1,10.8L17.1,10.8z"/>
		<polygon class="st0" points="17.1,23.5 17.3,23.6 18,23.9 18.4,23.9 18.8,24 19.2,24.1 19.7,24.2 20.1,24.2 20.5,24.2 21,24.2 
			21.5,24.2 21.8,24.2 22.2,24.2 22.8,24 23.5,23.9 24.1,23.7 24.4,23.6 24.4,25.8 24.3,25.8 23.4,26 22.4,26.1 21.3,26.2 
			20.3,26.3 19.5,26.3 18.8,26.2 18.1,26.1 17.4,26.1 17.1,26 17.1,23.5 		"/>
		<polygon class="st0" points="24.4,14.3 24.4,12.8 23.7,12.6 23.7,12.6 23.7,12.2 24,12.1 24.3,11.9 24.4,11.9 24.4,11.2 24.4,11 
			24.2,10.8 24,10.5 23.8,10.2 23.8,10.2 23.6,10.2 23.4,10.2 23.2,10.2 22.9,10.4 22.7,10.7 22.5,11.2 22.3,11.9 22.3,11.9 
			22.3,11.9 22.3,12.1 22.3,12.8 22.4,13.2 22.4,13.7 22.6,14.1 22.9,14.6 22.9,14.6 23,14.8 23.2,15 23.4,15 23.4,15 23.6,15 
			23.8,15 24,14.8 24.2,14.6 24.4,14.3 		"/>
		<path class="st0" d="M24.4,31.7v-0.8l0.7-0.2l0.8-0.2l0.8-0.2l0.8-0.2l0.8-0.2l0.8-0.4l0.7-0.3l0.7-0.4l0.7-0.4l0.7-0.4l0.6-0.4
			l0.6-0.4l0.6-0.4l0.5-0.5l0.3-0.2l0.2-0.2l0.2-0.2l0.2-0.2l0.3-0.5l0.2-0.3l0.2-0.2l0.1-0.2L36,24l0.1-0.2l0.1-0.2l0.1-0.2
			l0.1-0.2v-0.2v-0.2v-0.5l-0.1-0.2l-0.1-0.2L36,21.1l-0.1-0.2l-0.2-0.2v0.1l-0.1,0.3l-0.1,0.5l-0.1,0.3l-0.1,0.2l-0.2,0.4l-0.2,0.4
			l-0.2,0.4l-0.3,0.4L34.4,24l-0.3,0.5l-0.4,0.4l-0.4,0.4l-0.1,0.1v-0.1l0.1-0.2l0.6-1.1l0.4-0.7l0.3-0.6l0.2-0.4l0.2-0.3l0.1-0.3
			l0.1-0.3l0.1-0.3v-0.3l0.1-0.5v-0.5v-0.4v-0.2L35.2,19l-0.1-0.1l0,0v0.1L35,19.1l-0.2,0.3L34.5,20l-0.2,0.2l-0.3,0.3l-0.2,0.4
			l-0.3,0.2l-0.6,0.7l-0.4,0.3l-0.4,0.4l-0.5,0.4l-0.5,0.3l-0.5,0.4l-0.5,0.4l-0.6,0.3l-0.7,0.3l-0.7,0.3L27.6,25l-0.8,0.2L26,25.5
			l-0.8,0.2l-0.8,0.2v-2.2l0.3-0.1l0.5-0.3l0.5-0.3l0.5-0.3l0.4-0.3l0.4-0.3l0.3-0.3l0.3-0.2l0.6-0.6h0.1l-0.1,0.2L28,21.8l-0.4,0.8
			l0,0l0.5-0.1l0.4-0.2l0.6-0.2l0.3-0.1l0.2-0.1l0.3-0.1l0.2-0.1l0.2-0.2l0.1-0.1l0.1-0.1l0.1-0.1l0.1-0.1V21v-0.1l-0.1-0.1
			l-0.1-0.2l-0.2-0.2l-0.3-0.2L29.5,20l-0.2-0.1l-0.3-0.2l-0.5-0.3L28,19.1l-0.7-0.3l-0.7-0.3l-0.8-0.3L25,18.2l-0.6-0.1v-1.5h0.3
			l0.2-0.1l0.3-0.1l0.2-0.1l0.4-0.4l0.4-0.5l0.3-0.7l0.2-0.8l0.2-0.8l0.1-0.9l0,0l-0.1-0.9l-0.2-0.9l-0.2-0.8l-0.3-0.7l-0.4-0.5
			l-0.4-0.4l-0.2-0.1l-0.3-0.1l-0.2-0.1l-0.3-0.1l0,0V0.8c1.1,0.3,2,0.6,2.4,0.9c5.3,2.9,9.1,8.3,9.1,14.6c0.5,0.4,0.8,2,0.8,2.6
			c0.7,1.5,1,2.5,0.7,4.1l0,0c0.7,0.6,1.4,1.2,2,1.9c-1,2.1-2.3,4-3.9,5.6l0-0.1l-0.1-0.4l-0.1-0.4L35.1,29l-0.2-0.6L34.6,28
			l-0.2-0.4l-0.1-0.1h-0.2l0,0L34,27.6l-0.2,0.1l-0.6,0.4l-0.5,0.4L32,28.9l0.1,0.6l0.1,0.7l0.1,0.6l0.1,0.6l0.1,1.2v0.6L32,33.5
			l0-0.5v-0.6l-0.1-0.6l-0.1-0.6l-0.1-0.4L31.5,30l-0.2-0.8l0,0l-0.2,0.2l-0.3,0.1l-0.4,0.2L30,29.9l-0.5,0.3l-0.5,0.3l-0.7,0.2v0.5
			v0.5v0.4l-0.1,0.4L28,33.3L28,33.6l-0.1,0.3l-0.2,0.5l-0.1,0.3l-0.1,0.1v0.1v-0.1l0.1-0.8l0.1-0.6l0.1-0.6v-0.6l-0.1-0.6v-0.2
			l-0.1-0.2L27.5,31h-0.1h-0.1h-0.2l-0.4,0.1l-0.5,0.2v0.2l-0.1,0.3l-0.1,0.8L26,34.1L26,35v0.3l0.1,0.4l0.1,0.5l-0.4,0.1v-0.4V35
			l0.1-1.7l0.1-1.8l-0.9,0.2L24.4,31.7L24.4,31.7L24.4,31.7z"/>
		<polygon class="st0" points="24.4,11.2 24.4,11.9 24.6,11.9 24.6,11.9 24.6,11.7 24.5,11.3 24.4,11.2 		"/>
		<polygon class="st0" points="24.4,12.8 24.4,14.3 24.6,13.7 24.7,12.9 24.7,12.9 24.4,12.8 		"/>
	</g>
	<path class="st0" d="M4.9,24.1c0,0,8.5,10.2,20.6,7.2c-0.5,2-3,4.6,2.4,5.6c4.8,1,4.2-5.3,3.7-8.1c2.2-1.3,4.4-3,6.7-5.3
		c0,0,3.7,4,4.5,9.1c0.8,5.1-1.3,5.1-1.3,5.1s-1.3-0.5-3.2-3.2c0,0-3.5,11.2-15.8,11.2c-12.3,0-16.3-8-17.4-11.2c0,0-2.9,4-4.3,2.9
		C-0.4,36.4,1.2,27.6,4.9,24.1z"/>
</g>
</svg>
